<svg data-v-0dd9719b="" version="1.0" xmlns="http://www.w3.org/2000/svg" xmlns:xlink="http://www.w3.org/1999/xlink" width="100%" height="100%" viewBox="0 0 340.000000 250.000000" preserveAspectRatio="xMidYMid meet" color-interpolation-filters="sRGB" style="margin: auto;"> <rect data-v-0dd9719b="" x="0" y="0" width="100%" height="100%" fill="#fff" fill-opacity="1" class="background"></rect> <rect data-v-0dd9719b="" x="0" y="0" width="100%" height="100%" fill="url(#watermark)" fill-opacity="1" class="watermarklayer"></rect> <g data-v-0dd9719b="" fill="#0eda89" class="icon-text-wrapper icon-svg-group iconsvg" transform="translate(54.670005798339844,94.85712051391602)"><g class="iconsvg-imagesvg" transform="translate(0,0)"><g><rect fill="#0eda89" fill-opacity="0" stroke-width="2" x="0" y="0" width="60" height="60.28575447621727" class="image-rect"></rect> <svg x="0" y="0" width="60" height="60.28575447621727" filtersec="colorsb3599391285" class="image-svg-svg primary" style="overflow: visible;"><svg xmlns="http://www.w3.org/2000/svg" viewBox="0.03374671936035156 -0.00012969970703125 187.6944122314453 188.58889770507812"><title>资源 59</title><g><g><path d="M98.33 0c30.27 1.31 57.45 16.51 76.24 46.47 3.21 5.11 4.3 8.07-3.37 10.34-16.2 4.79-15.78 5-26.85-7.23C126.61 30 104.42 22.16 78.5 27.94c-26.59 5.92-44 22.73-51.12 48.91-2.19 8.05-5.25 10.07-12.49 7.62a5.24 5.24 0 0 0-.88-.16C-2 81.84-2 81.84 2.91 66.11 15.33 26.65 51.91-.07 98.33 0zM140.08 81.59c13.62 0 27.25.16 40.88-.08 4.58-.09 5.95 1.52 6.39 6 4 41-24.17 83.57-63.79 96.38-5.2 1.68-7.3 1-8-4.81s-5.1-12.05-3.73-17c1.43-5.14 9.76-5 14.71-7.91 15.09-9 25.64-21.5 31.54-38.11 2.25-6.34 1.66-9-6-8.78-17.17.44-34.36 0-51.54.23-5.41.09-7.72-.86-7.66-7.16.16-18.84-.17-18.84 18.82-18.84z" fill="#0eda89"></path><path d="M91.83 183.11c-2.32-10.13-5.27-19.92-11.15-28.62a62.62 62.62 0 0 0-21-24.88C44.58 116 26.42 109.75 6.57 107.25c-5.64-.71-6.92 1.09-5.73 6.14 4.73 20 13.61 37.55 29.75 50.87 7.69 8.74 17.56 14 28.36 17.8 9 4.12 18.45 5.88 28.25 6.49 4.4.27 5.69-.8 4.63-5.44z" fill="#00e07d"></path></g></g></svg></svg> <!----></g></g> <g transform="translate(67,6.4016265869140625)"><g data-gra="path-name" fill-rule="" class="tp-name iconsvg-namesvg" transform="translate(0,0)"><g transform="scale(1)"><g><path d="M37.35-32.4L37.35-29.34 40.37-29.34 40.37-25.15 37.35-25.15 37.35-4.37Q37.35-2.56 36.09-1.3 34.83-0.04 33.03-0.04L33.03-0.04 10.53-0.04 4.32-0.04 4.32-25.15 0.99-25.15 0.99-29.34 4.32-29.34 4.32-32.4 10.53-32.4 10.53-29.34 31.18-29.34 31.18-32.4 37.35-32.4ZM10.53-4.68L29.74-4.68Q30.38-4.68 30.78-5.08 31.18-5.49 31.18-6.12L31.18-6.12 31.18-13.41 10.53-13.41 10.53-4.68ZM31.18-17.55L31.18-25.15 10.53-25.15 10.53-17.55 31.18-17.55ZM58.59-20.2L58.59-21.91 42.34-21.91 42.34-25.83 58.59-25.83 58.59-27.58 43.65-27.58 43.65-31.5 58.59-31.5 58.59-32.49 64.71-32.49 64.71-31.5 75.19-31.5 79.69-31.5 80.32-31.5 80.32-25.83 81.85-25.83 81.85-21.91 80.32-21.91 80.32-21.2Q80.32-20.16 79.94-19.26 79.56-18.36 78.88-17.68 78.21-17.01 77.31-16.63 76.41-16.25 75.38-16.25L75.38-16.25 64.71-16.25 64.71 0.04 58.59 0.04 58.59-16.25 43.7-16.25 43.7-20.2 58.59-20.2ZM75.19-21.6L75.19-21.91 64.71-21.91 64.71-20.2 73.8-20.2Q74.38-20.2 74.79-20.61 75.19-21.02 75.19-21.6L75.19-21.6ZM64.71-27.58L64.71-25.83 75.19-25.83 75.19-27.58 64.71-27.58ZM55.26-1.08L49.99-1.08 51.44-14.45 56.66-14.45 55.26-1.08ZM72.77-14.45L74.16-1.08 68.53-1.08 67.14-14.45 72.77-14.45ZM81.04-15.12L81.04 0.04 75.38 0.04 75.38-15.12 81.04-15.12ZM43.47-4.14L43.47-15.12 48.91-15.12 48.91-4.14 48.06 0 42.66 0 43.47-4.14ZM88.65 0.04L83.74 0.04 84.87-23.18 89.77-23.18 88.65 0.04ZM97.56 0.04L96.44-23.18 101.34-23.18 102.42 0.04 97.56 0.04ZM105.7-23.18L110.56-23.18 109.44 0.04 104.58 0.04 105.7-23.18ZM117.22-23.18L122.13-23.18 123.25 0.04 118.35 0.04 117.22-23.18ZM102.42-28.98L102.42-24.52 95.53-24.52 95.53 0.04 90.13 0.04 90.13-24.52 83.74-24.52 83.74-28.98 90.13-28.98 90.13-32.49 95.53-32.49 95.53-28.98 102.42-28.98ZM116.59-32.49L116.59-28.98 123.25-28.98 123.25-24.52 116.59-24.52 116.59 0.04 111.19 0.04 111.19-24.52 104.58-24.52 104.58-28.98 111.19-28.98 111.19-32.49 116.59-32.49ZM162.67-25.96L162.67-21.06Q162.67-20.02 162.29-19.13 161.91-18.22 161.23-17.55 160.56-16.88 159.66-16.49 158.76-16.11 157.72-16.11L157.72-16.11 128.66-16.11 128.66-25.96 162.67-25.96ZM156.42-21.46L156.42-22 134.41-22 134.41-20.07 155.02-20.07Q155.61-20.07 156.01-20.47 156.42-20.88 156.42-21.46L156.42-21.46ZM160.38-11.03L156.55-9.13 164.65-9.13 164.65-5.71 150.57-5.71 150.57-4.86Q150.57-3.82 150.19-2.95 149.8-2.07 149.13-1.4 148.45-0.72 147.55-0.34 146.65 0.04 145.62 0.04L145.62 0.04 136.3 0.04 138.01-3.82 142.92-3.82Q143.5-3.82 143.91-4.23 144.31-4.63 144.31-5.22L144.31-5.22 144.31-5.71 125.19-5.71 125.19-9.13 145.84-9.13 149.8-11.03 128.66-11.03 128.66-14.67 160.38-14.67 160.38-11.03ZM147.15-32.45L147.69-31.05 164.65-31.05 164.65-27.09 125.1-27.09 125.1-31.05 140.94-31.05 140.4-32.45 147.15-32.45Z" transform="translate(-0.9900000095367432, 32.4900016784668)"></path></g> <!----> <!----> <!----> <!----> <!----> <!----> <!----></g></g> <g data-gra="path-slogan" fill-rule="" class="tp-slogan iconsvg-slogansvg" fill="#0eda89" transform="translate(5,38.53000259399414)"><rect x="0" height="1" y="3.9750003814697266" width="23.719440460205078"></rect> <rect height="1" y="3.9750003814697266" width="23.719440460205078" x="129.94054794311523"></rect> <g transform="translate(26.719440460205078,0)"><g transform="scale(1)"><path d="M7.31-3.61L4.69-3.61L4.69-4.59L8.44-4.59L8.44 0L7.69 0L7.41-1.08Q6.42 0.09 4.59 0.14L4.59 0.14Q2.86 0.14 1.92-0.75L1.92-0.75Q0.52-2.06 0.56-4.36L0.56-4.36Q0.89-8.63 4.64-8.81L4.64-8.81Q7.83-8.63 8.30-6L8.30-6L7.17-6Q6.70-7.78 4.59-7.83L4.59-7.83Q1.92-7.64 1.78-4.31L1.78-4.31Q1.78-0.75 4.64-0.75L4.64-0.75Q5.67-0.75 6.42-1.31L6.42-1.31Q7.36-2.06 7.31-3.61L7.31-3.61ZM15.89 0L15.05-2.48L11.58-2.48L10.69 0L9.52 0L12.75-8.58L14.06-8.58L17.16 0L15.89 0ZM13.31-7.31L11.95-3.52L14.63-3.52L13.36-7.31L13.31-7.31ZM19.59-8.58L23.91-1.64L23.91-8.58L25.03-8.58L25.03 0L23.72 0L19.36-6.94L19.31-6.94L19.31 0L18.19 0L18.19-8.58L19.59-8.58ZM33.09-6.09L33.09-6.09L32.02-6.09Q31.92-7.73 29.86-7.83L29.86-7.83Q27.94-7.78 27.94-6.33L27.94-6.33Q27.94-5.39 28.97-5.25L28.97-5.25L31.41-4.69Q33.33-4.22 33.33-2.34L33.33-2.34Q33.28 0.05 29.95 0.14L29.95 0.14Q28.13 0.14 27.38-0.61L27.38-0.61Q26.44-1.31 26.48-2.77L26.48-2.77L27.61-2.77Q27.66-0.80 29.95-0.75L29.95-0.75Q32.20-0.80 32.25-2.20L32.25-2.20Q32.44-3.38 30.38-3.75L30.38-3.75L28.59-4.13Q26.77-4.64 26.77-6.19L26.77-6.19Q26.91-8.72 29.77-8.81L29.77-8.81Q33-8.81 33.09-6.09ZM40.45-3.19L40.45-8.58L41.63-8.58L41.63-3.05Q41.48 0.05 38.11 0.14L38.11 0.14Q34.97 0.05 34.83-2.86L34.83-2.86L34.83-8.58L36-8.58L36-3.19Q36.05-0.84 38.16-0.80L38.16-0.80Q40.45-0.84 40.45-3.19L40.45-3.19ZM46.73-8.58L47.91-8.58L47.91-1.03L52.27-1.03L52.27 0L46.73 0L46.73-8.58ZM53.58-8.58L54.75-8.58L54.75 0L53.58 0L53.58-8.58ZM58.13-8.58L62.44-1.64L62.44-8.58L63.56-8.58L63.56 0L62.25 0L57.89-6.94L57.84-6.94L57.84 0L56.72 0L56.72-8.58L58.13-8.58ZM72.09-8.58L69.19-4.41L72.23 0L70.78 0L68.44-3.52L66.09 0L64.69 0L67.78-4.41L64.88-8.58L66.33-8.58L68.48-5.30L70.69-8.58L72.09-8.58ZM73.50-8.58L74.67-8.58L74.67 0L73.50 0L73.50-8.58ZM82.31 0L81.47-2.48L78-2.48L77.11 0L75.94 0L79.17-8.58L80.48-8.58L83.58 0L82.31 0ZM79.73-7.31L78.38-3.52L81.05-3.52L79.78-7.31L79.73-7.31ZM86.02-8.58L90.33-1.64L90.33-8.58L91.45-8.58L91.45 0L90.14 0L85.78-6.94L85.73-6.94L85.73 0L84.61 0L84.61-8.58L86.02-8.58ZM99.66-3.61L97.03-3.61L97.03-4.59L100.78-4.59L100.78 0L100.03 0L99.75-1.08Q98.77 0.09 96.94 0.14L96.94 0.14Q95.20 0.14 94.27-0.75L94.27-0.75Q92.86-2.06 92.91-4.36L92.91-4.36Q93.23-8.63 96.98-8.81L96.98-8.81Q100.17-8.63 100.64-6L100.64-6L99.52-6Q99.05-7.78 96.94-7.83L96.94-7.83Q94.27-7.64 94.13-4.31L94.13-4.31Q94.13-0.75 96.98-0.75L96.98-0.75Q98.02-0.75 98.77-1.31L98.77-1.31Q99.70-2.06 99.66-3.61L99.66-3.61Z" transform="translate(-0.5609879032258065, 8.8125)"></path></g></g></g></g></g><defs v-gra="od"></defs></svg>